<?xml version="1.0" encoding="utf-8"?>
<!-- Generator: Adobe Illustrator 24.0.1, SVG Export Plug-In . SVG Version: 6.00 Build 0)  -->
<svg version="1.1" id="图层_1" xmlns="http://www.w3.org/2000/svg" xmlns:xlink="http://www.w3.org/1999/xlink" x="0px" y="0px"
	 viewBox="0 0 283.46 283.46" style="enable-background:new 0 0 283.46 283.46;" xml:space="preserve">
<style type="text/css">
	.st0{fill:#FFB757;}
</style>
<g>
	<path class="st0" d="M260.27,111.21c0,0-3.44-28.41-34.89-32.91c2.38-19.82-35.15-31.98-35.15-31.98s-44.93-13.08-48.5-23.79
		c-3.57,10.7-48.5,23.79-48.5,23.79S55.7,58.48,58.08,78.3c-31.45,4.49-34.89,32.91-34.89,32.91s-1.68,23.99-13.78,31.22
		c13.38,7.04,13.18,30.53,15.96,39.74c2.78,9.22,17.11,23.52,32.58,23.92c-1.45,7.4,2.38,15.46,11.89,21.14
		c9.51,5.68,30.53,14.8,42.95,17.18c12.42,2.38,28.94,16.52,28.94,16.52s16.52-14.14,28.94-16.52c12.42-2.38,33.43-11.5,42.95-17.18
		c9.51-5.68,13.35-13.74,11.89-21.14c15.46-0.4,29.8-14.7,32.58-23.92c2.78-9.22,2.58-32.71,15.96-39.74
		C261.96,135.19,260.27,111.21,260.27,111.21z M250.76,158.38c-1.72,7.8,5.02,36.74-34.62,40.44c0,12.95-5.81,19.56-20.62,27.62
		c-7.53,3.96-21.67,6.34-32.38,9.78c-10.7,3.44-21.41,12.55-21.41,12.55s-10.7-9.12-21.41-12.55c-10.7-3.44-24.84-5.81-32.38-9.78
		c-14.8-8.06-20.62-14.67-20.62-27.62c-39.65-3.7-32.91-32.64-34.62-40.44c-1.72-7.8-10.18-16.52-10.18-16.52
		c8.19-6.87,11.07-16.98,10.87-21.24c-0.2-4.26,0.2-11.7,2.08-15.26c4.86-9.12,17.15-21.21,32.11-20.22
		c-1.78-12.79,12.79-29.24,37.27-32.81c24.48-3.57,36.87-16.95,36.87-16.95s12.39,13.38,36.87,16.95
		c24.48,3.57,39.05,20.02,37.27,32.81c14.97-0.99,27.26,11.1,32.11,20.22c1.88,3.57,2.28,11,2.08,15.26
		c-0.2,4.26,2.68,14.37,10.87,21.24C260.93,141.86,252.47,150.59,250.76,158.38z"/>
	<path class="st0" d="M165.78,106.65c1.06,0,1.92-0.86,1.92-1.92c0-1.06-0.86-1.92-1.92-1.92s-1.92,0.86-1.92,1.92
		C163.87,105.79,164.73,106.65,165.78,106.65z"/>
	<path class="st0" d="M165.78,177.36c-1.06,0-1.92,0.86-1.92,1.92c0,1.06,0.86,1.92,1.92,1.92s1.92-0.86,1.92-1.92
		C167.7,178.22,166.84,177.36,165.78,177.36z"/>
	<circle class="st0" cx="228.89" cy="143.08" r="2.85"/>
	<path class="st0" d="M158.12,137.5l-10.84-10.84h-5.55h-5.55l-10.84,10.84v10.11l10.9,10.18h5.48h5.48l10.9-10.18V137.5z
		 M154.94,146.79l-7.54,7.54h-5.66h-5.66l-7.54-7.54v-9.04l7.51-7.51h5.7h5.7l7.51,7.51V146.79z"/>
	<path class="st0" d="M241.44,111.6c-0.3-8.03-12.59-22.5-31.82-20.91c-3.57-29.93-21.8-30.92-41.43-35.09
		c-19.62-4.16-26.46-13.38-26.46-13.38s-6.84,9.22-26.46,13.38c-19.62,4.16-37.86,5.15-41.43,35.09
		c-19.23-1.59-31.52,12.88-31.82,20.91c-0.3,8.03-0.99,21.8-11.4,30.82c7.24,4.46,9.61,15.36,9.61,16.95
		c0,1.59-1.68,37.37,33.7,34.29c-0.99,10.7,4.76,28.25,30.72,33.1c25.97,4.86,37.07,14.67,37.07,14.67s11.1-9.81,37.07-14.67
		c25.97-4.86,31.72-22.4,30.72-33.1c35.38,3.07,33.7-32.71,33.7-34.29c0-1.59,2.38-12.49,9.61-16.95
		C242.43,133.41,241.74,119.63,241.44,111.6z M156.07,85.04c1.85,0.4,9.25,13.02,9.25,13.02s-3.77-9.12-4.56-12.16
		c-0.79-3.04,0.86-4.43,3.44-3.7s5.09,13.35,5.09,13.35c3.37-2.11,3.11-4.63,3.11-6.94c0-2.31-3.37-6.14-2.84-8.19
		c0.53-2.05,3.7-6.21,8-5.42c4.29,0.79,4.1,4.03,2.99,3.96c-1.11-0.07-5.83-0.4-5.9,3.04c4.1-1.85,8.79,0.53,10.84,1.12
		c2.05,0.59,2.05-1.19,2.18-2.18c0.13-0.99,1.06-1.65,3.7-1.32c1.45-2.84-2.78-4.63-2.78-4.63s-5.68-1.06-6.94-1.92
		c-1.26-0.86-1.11-3.9,0-4.23c4.69-0.99,11.63,5.22,14.73,7.53c3.11,2.31,4.82,4.82-0.79,8.19c4.96,0.59,9.58,10.77,9.58,10.77
		s6.48-1.65,9.38,3.63c2.91,5.29-7.73,2.91-7.73,2.91s7,10.31,12.55,11.83c5.55,1.52,10.18-5.29,10.77-5.88
		c0.59-0.59-0.2-2.51,1.45-2.91c1.65-0.4,2.18,2.51,2.18,2.51s0,0,0.66-1.45c2.64-1.19,4.36,0.53,3.37,2.69
		c-8.79,10.09-16.39,8.87-19.29,8.61c-2.91-0.26-19.76-2.25-19.49-0.86c0.26,1.39,6.34,5.48,3.83,6.54
		c-7.27,0.13-10.84-5.09-14.8-14.29c-3.96-9.2-9.65-9.3-10.52-10.03c-0.87-0.73-3.62,0.33-2.36,2.05c3.24,2.84,3.37,7.47-0.99,7.07
		c1.39,1.98,0.66,5.75-1.98,4.43c1.59,4.63-0.53,5.02-0.53,5.02s-6.74-3.3-9.58-8.54c-2.84-5.24-0.13-10.03-0.13-10.03
		s-7.53-6.87-8-8.62C153.49,88.29,154.22,84.64,156.07,85.04z M157.85,164.79l-11.17,11.17h-4.96h-4.96l-11.17-11.17
		c0,0,7.35-4.13,3.88-8.29c-3.47-4.16-4.15-5.19-4.15-5.19s-4.03-2.59-6.86,2.06c-2.82,4.66-6.29,3.52-6.29,3.52l-9.27-11.1v-6.39
		l9.02-11.5c0,0,2.18-2.13,5.5,2.33c3.32,4.46,4.63,4.89,7.14,3.57c2.94-3.17,5.1-5.75,5.1-5.75s4.31-3.82-4.71-8.13
		c11.79-11.25,11.79-11.25,11.79-11.25h4.96h4.96c0,0,0,0,11.79,11.25c-9.02,4.31-4.71,8.13-4.71,8.13s2.16,2.58,5.1,5.75
		c2.51,1.32,3.82,0.89,7.14-3.57c3.32-4.46,5.5-2.33,5.5-2.33l9.02,11.5v6.39l-9.27,11.1c0,0-3.47,1.14-6.29-3.52
		c-2.82-4.66-6.86-2.06-6.86-2.06s-0.68,1.02-4.15,5.19C150.5,160.66,157.85,164.79,157.85,164.79z M141.73,55.33
		c5.8,0,10.51,4.7,10.51,10.51s-4.7,10.51-10.51,10.51s-10.51-4.7-10.51-10.51S135.93,55.33,141.73,55.33z M49.03,105.99
		c0.66,1.45,0.66,1.45,0.66,1.45s0.53-2.91,2.18-2.51c1.65,0.4,0.86,2.31,1.45,2.91c0.59,0.59,5.22,7.4,10.77,5.88
		c5.55-1.52,12.55-11.83,12.55-11.83s-10.64,2.38-7.73-2.91c2.91-5.29,9.38-3.63,9.38-3.63s4.63-10.18,9.58-10.77
		c-5.62-3.37-3.9-5.88-0.79-8.19c3.11-2.31,10.04-8.52,14.73-7.53c1.11,0.33,1.26,3.37,0,4.23c-1.26,0.86-6.94,1.92-6.94,1.92
		s-4.23,1.78-2.78,4.63c2.64-0.33,3.57,0.33,3.7,1.32c0.13,0.99,0.13,2.78,2.18,2.18c2.05-0.59,6.74-2.97,10.84-1.12
		c-0.07-3.44-4.79-3.11-5.9-3.04c-1.11,0.07-1.3-3.17,2.99-3.96c4.29-0.79,7.47,3.37,8,5.42c0.53,2.05-2.84,5.88-2.84,8.19
		c0,2.31-0.26,4.82,3.11,6.94c0,0,2.51-12.62,5.09-13.35s4.23,0.66,3.44,3.7c-0.79,3.04-4.56,12.16-4.56,12.16s7.4-12.62,9.25-13.02
		c1.85-0.4,2.58,3.25,2.11,4.99c-0.46,1.75-8,8.62-8,8.62s2.71,4.79-0.13,10.03c-2.84,5.24-9.58,8.54-9.58,8.54s-2.11-0.4-0.53-5.02
		c-2.64,1.32-3.37-2.44-1.98-4.43c-4.36,0.4-4.23-4.23-0.99-7.07c1.26-1.72-1.49-2.78-2.36-2.05c-0.87,0.73-6.56,0.83-10.52,10.03
		c-3.96,9.2-7.53,14.42-14.8,14.29c-2.51-1.06,3.57-5.15,3.83-6.54c0.26-1.39-16.58,0.59-19.49,0.86
		c-2.91,0.26-10.51,1.49-19.29-8.61C44.67,106.51,46.39,104.8,49.03,105.99z M54.58,131.54c6.38,0,11.55,5.17,11.55,11.55
		c0,6.38-5.17,11.55-11.55,11.55s-11.55-5.17-11.55-11.55C43.03,136.71,48.2,131.54,54.58,131.54z M127.39,198.97
		c-1.85-0.4-9.25-13.02-9.25-13.02s3.77,9.12,4.56,12.16c0.79,3.04-0.86,4.43-3.44,3.7c-2.58-0.73-5.09-13.35-5.09-13.35
		c-3.37,2.11-3.11,4.63-3.11,6.94c0,2.31,3.37,6.15,2.84,8.19c-0.53,2.05-3.7,6.21-8,5.42c-4.29-0.79-4.1-4.03-2.99-3.96
		c1.11,0.07,5.83,0.4,5.9-3.04c-4.1,1.85-8.79-0.53-10.84-1.12c-2.05-0.59-2.05,1.19-2.18,2.18c-0.13,0.99-1.06,1.65-3.7,1.32
		c-1.45,2.84,2.78,4.63,2.78,4.63s5.68,1.06,6.94,1.92c1.26,0.86,1.11,3.9,0,4.23c-4.69,0.99-11.63-5.22-14.73-7.53
		c-3.11-2.31-4.82-4.82,0.79-8.19c-4.96-0.59-9.58-10.77-9.58-10.77s-6.48,1.65-9.38-3.63c-2.91-5.29,7.73-2.91,7.73-2.91
		s-7-10.31-12.55-11.83c-5.55-1.52-10.18,5.29-10.77,5.88c-0.59,0.59,0.2,2.51-1.45,2.91c-1.65,0.4-2.18-2.51-2.18-2.51
		s0,0-0.66,1.45c-2.64,1.19-4.36-0.53-3.37-2.69c8.79-10.09,16.39-8.87,19.29-8.61c2.91,0.26,19.76,2.25,19.49,0.86
		c-0.26-1.39-6.34-5.48-3.83-6.54c7.27-0.13,10.84,5.09,14.8,14.29c3.96,9.2,9.65,9.3,10.52,10.03c0.87,0.73,3.62-0.33,2.36-2.05
		c-3.24-2.84-3.37-7.47,0.99-7.07c-1.39-1.98-0.66-5.75,1.98-4.43c-1.59-4.63,0.53-5.02,0.53-5.02s6.74,3.3,9.58,8.54
		c2.84,5.24,0.13,10.03,0.13,10.03s7.53,6.87,8,8.62C129.97,195.72,129.24,199.37,127.39,198.97z M141.73,233.14
		c-5.8,0-10.51-4.7-10.51-10.51s4.7-10.51,10.51-10.51s10.51,4.7,10.51,10.51S147.53,233.14,141.73,233.14z M234.44,178.02
		c-0.66-1.45-0.66-1.45-0.66-1.45s-0.53,2.91-2.18,2.51c-1.65-0.4-0.86-2.31-1.45-2.91c-0.59-0.59-5.22-7.4-10.77-5.88
		c-5.55,1.52-12.55,11.83-12.55,11.83s10.64-2.38,7.73,2.91c-2.91,5.29-9.38,3.63-9.38,3.63s-4.63,10.18-9.58,10.77
		c5.62,3.37,3.9,5.88,0.79,8.19c-3.11,2.31-10.04,8.52-14.73,7.53c-1.11-0.33-1.26-3.37,0-4.23c1.26-0.86,6.94-1.92,6.94-1.92
		s4.23-1.78,2.78-4.63c-2.64,0.33-3.57-0.33-3.7-1.32c-0.13-0.99-0.13-2.78-2.18-2.18c-2.05,0.59-6.74,2.97-10.84,1.12
		c0.07,3.44,4.79,3.11,5.9,3.04c1.11-0.07,1.3,3.17-2.99,3.96c-4.29,0.79-7.47-3.37-8-5.42c-0.53-2.05,2.84-5.88,2.84-8.19
		c0-2.31,0.26-4.82-3.11-6.94c0,0-2.51,12.62-5.09,13.35c-2.58,0.73-4.23-0.66-3.44-3.7c0.79-3.04,4.56-12.16,4.56-12.16
		s-7.4,12.62-9.25,13.02c-1.85,0.4-2.58-3.25-2.11-4.99c0.46-1.75,8-8.62,8-8.62s-2.71-4.79,0.13-10.03
		c2.84-5.24,9.58-8.54,9.58-8.54s2.11,0.4,0.53,5.02c2.64-1.32,3.37,2.44,1.98,4.43c4.36-0.4,4.23,4.23,0.99,7.07
		c-1.26,1.72,1.49,2.78,2.36,2.05c0.87-0.73,6.56-0.83,10.52-10.03c3.96-9.2,7.53-14.42,14.8-14.29c2.51,1.06-3.57,5.15-3.83,6.54
		s16.58-0.59,19.49-0.86c2.91-0.26,10.51-1.49,19.29,8.61C238.8,177.49,237.08,179.21,234.44,178.02z M228.89,154.63
		c-6.38,0-11.55-5.17-11.55-11.55c0-6.38,5.17-11.55,11.55-11.55s11.55,5.17,11.55,11.55C240.44,149.46,235.27,154.63,228.89,154.63
		z"/>
	<path class="st0" d="M117.68,106.65c1.06,0,1.92-0.86,1.92-1.92c0-1.06-0.86-1.92-1.92-1.92c-1.06,0-1.92,0.86-1.92,1.92
		C115.76,105.79,116.62,106.65,117.68,106.65z"/>
	<path class="st0" d="M117.68,177.36c-1.06,0-1.92,0.86-1.92,1.92c0,1.06,0.86,1.92,1.92,1.92c1.06,0,1.92-0.86,1.92-1.92
		C119.6,178.22,118.74,177.36,117.68,177.36z"/>
	<circle class="st0" cx="54.58" cy="143.08" r="2.85"/>
	<path class="st0" d="M141.73,69.85c2.22,0,4.01-1.8,4.01-4.01c0-2.22-1.8-4.01-4.01-4.01c-2.22,0-4.01,1.8-4.01,4.01
		C137.72,68.05,139.52,69.85,141.73,69.85z"/>
	<path class="st0" d="M141.73,218.62c-2.22,0-4.01,1.8-4.01,4.01c0,2.22,1.8,4.01,4.01,4.01c2.22,0,4.01-1.8,4.01-4.01
		C145.75,220.42,143.95,218.62,141.73,218.62z"/>
</g>
</svg>
